<svg width="590" height="161" viewBox="0 0 590 161" fill="none" xmlns="http://www.w3.org/2000/svg">
<path d="M65.6257 116.553H112.467V103.42H79.9462V87.4034H106.301V74.4702H79.9462V60.0452H112.467V46.9125H65.6257V116.553Z" fill="black"/>
<path d="M149.975 46.941H135.666V116.524H179.985V103.403H149.975V46.941Z" fill="black"/>
<path d="M359.792 27.6562H346.873V40.3805H359.792V27.6562Z" fill="black"/>
<path d="M379.865 27.6562H366.946V40.3805H379.865V27.6562Z" fill="black"/>
<path d="M237.635 74.3762H212.991V46.941H198.682V116.524H212.991V87.4984H237.635V116.524H251.945V46.941H237.635V74.3762Z" fill="black"/>
<path d="M510.698 46.941H473.93V116.524H488.239V93.2629H510.698C520.139 93.2629 524.61 88.7896 524.61 79.3464V60.8575C524.61 51.4142 520.139 46.941 510.698 46.941ZM510.3 78.1539C510.3 79.6455 509.804 80.1422 508.313 80.1422H488.239V60.0616H508.313C509.804 60.0616 510.3 60.5598 510.3 62.05V78.1539Z" fill="black"/>
<path d="M426.292 46.941H411.982V116.524H456.301V103.403H426.292V46.941Z" fill="black"/>
<path d="M352.935 46.941L331.769 116.524H346.873L351.146 101.415H374.995L379.268 116.524H394.969L373.803 46.941H352.935ZM354.822 88.2929L363.07 59.0683L371.319 88.2929H354.822Z" fill="black"/>
<path d="M302.176 101.415C302.176 102.905 301.68 103.403 300.189 103.403H285.78C284.289 103.403 283.792 102.905 283.792 101.415V87.1006H269.482V102.608C269.482 112.051 273.954 116.524 283.395 116.524H302.574C312.014 116.524 316.486 112.051 316.486 102.608V46.941H302.176V101.415Z" fill="black"/>
<path d="M579.37 4.90799e-06H532.772L542.779 13.1207H572.983C574.472 13.1207 574.969 13.6188 574.969 15.109V144.959C574.969 146.45 574.472 146.947 572.983 146.947H544.779L532.772 160.068H579.37C588.81 160.068 589.279 159.598 589.279 150.155V9.91238C589.279 0.469114 588.81 4.90799e-06 579.37 4.90799e-06Z" fill="black"/>
<path d="M16.2961 13.1206H46.5L56.5066 0H9.90933C0.468963 0 0 0.469114 0 9.91238V150.155C0 159.598 0.468963 160.067 9.90933 160.067H56.5066L44.4994 146.947H16.2961C14.8065 146.947 14.31 146.45 14.31 144.959V15.109C14.31 13.6188 14.8065 13.1206 16.2961 13.1206Z" fill="black"/>
</svg>
