<svg width="1326" height="1051" viewBox="0 0 1326 1051" fill="none" xmlns="http://www.w3.org/2000/svg">
<path d="M106.995 86.0778H305.303L371.003 0H65.0612C3.07905 0 0 3.07762 0 65.03V985.09C0 1047.04 3.07905 1050.12 65.0612 1050.12H371.003L292.167 964.042H106.995C97.2142 964.042 93.9547 960.783 93.9547 950.998V99.1222C93.9547 89.3462 97.2141 86.0778 106.995 86.0778Z" fill="black"/>
<path d="M1260.35 3.21988e-05H954.411L1020.11 86.0778H1218.42C1228.2 86.0778 1231.46 89.3462 1231.46 99.1223V950.998C1231.46 960.783 1228.2 964.042 1218.42 964.042H1033.24L954.411 1050.12H1260.35C1322.33 1050.12 1325.41 1047.04 1325.41 985.09V65.03C1325.41 3.07762 1322.33 3.21988e-05 1260.35 3.21988e-05Z" fill="black"/>
<path d="M319.984 764.642H627.53V678.485H414.008V573.409H587.046V488.561H414.008V393.926H627.53V307.77H319.984V764.642Z" fill="black"/>
<path d="M861.035 307.956H767.091V764.455H1058.08V678.377H861.035V307.956Z" fill="black"/>
</svg>
